<svg width="602" height="402" viewBox="0 0 602 402" fill="none" xmlns="http://www.w3.org/2000/svg">
<rect x="0.5" y="0.5" width="601" height="401" rx="24.5" fill="#18181B" stroke="#323236"/>
<mask id="mask0_101_121" style="mask-type:luminance" maskUnits="userSpaceOnUse" x="124" y="93" width="353" height="212">
<path d="M124 93H477V304.8H124V93Z" fill="white"/>
</mask>
<g mask="url(#mask0_101_121)">
<path fill-rule="evenodd" clip-rule="evenodd" d="M300.5 93C253.433 93 224.017 116.533 212.25 163.6C229.9 140.067 250.492 131.242 274.025 137.125C287.452 140.479 297.048 150.225 307.671 161.005C324.975 178.57 345.004 198.9 388.75 198.9C435.817 198.9 465.233 175.367 477 128.3C459.35 151.833 438.758 160.658 415.225 154.775C401.798 151.422 392.202 141.675 381.579 130.895C364.275 113.33 344.246 93 300.5 93ZM212.25 198.9C165.183 198.9 135.767 222.433 124 269.5C141.65 245.967 162.242 237.142 185.775 243.025C199.202 246.385 208.798 256.125 219.421 266.905C236.725 284.47 256.754 304.8 300.5 304.8C347.567 304.8 376.983 281.267 388.75 234.2C371.1 257.733 350.508 266.558 326.975 260.675C313.548 257.322 303.952 247.575 293.329 236.795C276.025 219.23 255.996 198.9 212.25 198.9Z" fill="#38BDF8"/>
</g>
</svg>
